<svg width="50" height="50" viewBox="0 0 50 50" fill="none" xmlns="http://www.w3.org/2000/svg">
<path d="M46.93 20.39L43.51 10.1275C43.0139 8.6337 42.0596 7.33425 40.7828 6.41377C39.506 5.49329 37.9715 4.9986 36.3975 5H30V0H20V5H13.6025C12.0285 4.9986 10.494 5.49329 9.21721 6.41377C7.94039 7.33425 6.98612 8.6337 6.49 10.1275L3.07 20.39C2.16153 20.7712 1.38569 21.4119 0.839612 22.2319C0.293531 23.0519 0.00147272 24.0148 0 25V37.5C0 39.3825 1.0575 41.005 2.5975 41.8575C2.565 42.0225 2.5 42.1725 2.5 42.345V47.5C2.5 48.163 2.76339 48.7989 3.23223 49.2678C3.70107 49.7366 4.33696 50 5 50H7.5C8.16304 50 8.79893 49.7366 9.26777 49.2678C9.73661 48.7989 10 48.163 10 47.5V42.5H40V47.5C40 48.163 40.2634 48.7989 40.7322 49.2678C41.2011 49.7366 41.837 50 42.5 50H45C45.663 50 46.2989 49.7366 46.7678 49.2678C47.2366 48.7989 47.5 48.163 47.5 47.5V42.345C47.5 42.1725 47.435 42.02 47.4025 41.8575C48.186 41.4303 48.8404 40.8006 49.2973 40.0341C49.7543 39.2675 49.9969 38.3924 50 37.5V25C50 22.9275 48.73 21.1475 46.93 20.39ZM5 37.5V25H45L45.005 37.5H5ZM13.6025 10H36.395C37.4725 10 38.4275 10.685 38.7675 11.71L41.5325 20H8.4675L11.23 11.71C11.3959 11.212 11.7143 10.7788 12.1401 10.4719C12.566 10.165 13.0776 9.99987 13.6025 10Z" fill="#DFAA5B"/>
</svg>
